<svg fill= "#ffc73c" xmlns="http://www.w3.org/2000/svg" xmlns:xlink="http://www.w3.org/1999/xlink" width="411.391" height="267.64" viewBox="0 0 411.391 267.64"><defs><clipPath id="a"><path d="M854.961,1218.971c2.47-10.014,3.751-20.259-1.847-27.08-2.528-3.08-7.032-5.226-10.718-6.751-7.189-2.975-14.539-6.974-22.236-8.271-8.114-1.367-17.138-2.209-25.225-.255a61.307,61.307,0,0,0-14.535,6.02c-3.985,2.151-8.875,4-10.81,8.007a265.518,265.518,0,0,0-12.3,29.986c-2.888,8.5-6.057,17.418-1.507,26.036,1.474,2.793,3.616,5.183,5.3,7.851a18.516,18.516,0,0,1,2.826,9.193c.562,7.822.343,15.669.32,23.5-.007,2.258.024,4.6,1.057,6.634,2.036,4,7.567,4.058,11.552,4.051l39.4-.065a70.331,70.331,0,0,1,14.77,1.641c4.317.849,8.024-1.237,10.1-5.083,1.961-3.641,2.11-7.893,2.32-11.984a248.514,248.514,0,0,1,7.036-47.266C851.555,1230.748,853.472,1225.007,854.961,1218.971Z" transform="translate(-753.496 -1175.463)" fill="#1f8976"/></clipPath><clipPath id="b"><path d="M1585.94,954.769c-2.5-.015-4.924-.336-6.636-2.787-3.36-4.811-8.488-9.13-14.239-4.238-3.317,2.822-.823,8.627-3.677,11.419-2.524,2.469-5.734,2.061-7.026,6.159-1.9,6.029,4.087,11.312,6.008,16.526,1.613,4.375-2.014,6.042-3.643,9.452-1.256,2.628-.61,5.444.758,7.956,2.414,4.431,7.766,8,6.526,13.735-1.035,4.788-2,9.056,2.228,12.685,2.9,2.488,8.27,4.755,7.86,9.359-.145,1.629-1.272,3.018-1.582,4.625-.49,2.542,1.157,5.016,3.07,6.761,4.351,3.97,8.173,7.714,11.432,12.709,1.393,2.134,6.969,6.954,4.74,9.872,4.05-5.3,8.332-10.448,12.012-16.024,3.027-4.586,7.59-11.294,4.484-16.943-.966-1.757-2.763-3.066-3.255-5.01-.889-3.51,2.56-6.764,3.842-9.75a12.536,12.536,0,0,0-3.01-13.653c-1.678-1.665-3.5-3.5-3.744-5.847-.269-2.567,1.34-4.96,2.07-7.328a36.523,36.523,0,0,0,1.338-6.771,14.084,14.084,0,0,0-.136-4.805c-.716-2.978-3.4-4.633-5.383-6.746-4.725-5.03-2.242-10.945-4.306-16.791C1593.82,954.085,1589.792,954.792,1585.94,954.769Z" transform="translate(-1553.995 -945.59)" fill="#3dc8e8"/></clipPath><clipPath id="c"><path d="M1731.437,1131.889c1.814.335,3.618.438,5.2-1.1,3.1-3.025,7.421-5.448,10.915-1.1,2.015,2.506-.6,6.371,1.087,8.792,1.489,2.141,3.874,2.289,4.244,5.44.543,4.636-4.53,7.64-6.646,11.155-1.775,2.951.625,4.662,1.335,7.36a6.355,6.355,0,0,1-1.652,5.666c-2.364,2.88-6.74,4.727-6.635,9.06.088,3.616.2,6.845-3.372,8.893-2.445,1.4-6.657,2.3-7,5.7-.12,1.2.506,2.365.507,3.574,0,1.912-1.534,3.478-3.163,4.479a48.256,48.256,0,0,0-10.052,7.636c-1.306,1.355-6.017,4.08-4.8,6.5-2.2-4.408-4.6-8.732-6.5-13.286-1.561-3.746-3.943-9.243-.908-12.91.944-1.141,2.429-1.842,3.055-3.184,1.131-2.423-.92-5.261-1.437-7.6a9.257,9.257,0,0,1,4.073-9.487c1.447-.976,3.021-2.052,3.525-3.723.55-1.825-.286-3.784-.488-5.6a26.96,26.96,0,0,1-.034-5.1,10.392,10.392,0,0,1,.764-3.467c.931-2.061,3.106-2.891,4.838-4.149,4.124-2.995,3.141-7.629,5.448-11.584C1725.816,1130.3,1728.639,1131.372,1731.437,1131.889Z" transform="translate(-1702.537 -1127.321)" fill="#26a8d1"/></clipPath></defs><g transform="translate(-112.773 -552.741)"><path d="M858.507,906.933c-10.521,3.723-23.209,3.342-32.781-2.8-9.41-6.036-17.982-10.394-29.56-10.183-10.345.188-18.9,5.78-28.919,6.971-7.947.944-16.02-2.521-21.779-8.077-5.622-5.424-9.356-13.693-6.911-21.112,1.28-3.885,4.077-7.09,5.674-10.855,3.682-8.685-6.013-13.925-3.6-23.067,2.05-7.775,10.582-13.321,10.455-21.361-.093-5.885-4.649-10.447-6.254-15.892a21.609,21.609,0,0,1,1.594-16.665,19.915,19.915,0,0,1,9.375-8.37c3.508-1.495,7.427-1.523,10.139-4.588,4.834-5.463,6.607-11.383,13.24-15.377,5.615-3.381,13.031-3.6,19.472-3.006,14.315,1.312,28.207,8.868,36.27,20.9,2.857,4.265,4.919,8.629,4.991,13.7.078,5.541.077,11.114,3.471,15.825,2.85,3.955,7.426,6.269,11.962,8.054s9.291,3.229,13.274,6.04,7.145,7.4,6.681,12.252c-.389,4.062-3.2,7.591-3.575,11.654-.681,7.388,6.437,12.754,10.825,18.737a29.109,29.109,0,0,1,2.538,29.523c-5.324,10.71-15,13.125-25.13,17.155Q859.24,906.674,858.507,906.933Z" transform="translate(-483.091 -153.69)" fill="#0b2d4e"/><g transform="translate(298.927 611.962)"><path d="M932.54,814.262a24.823,24.823,0,0,1,11.54-3.124,42.948,42.948,0,0,1,11.987,1.339,36.92,36.92,0,0,1,19.987,13.076,33.036,33.036,0,0,1,5.5,10.83,41.658,41.658,0,0,1,1.323,12.072c-.04,4.033-.327,8.044-.194,12.013a21.564,21.564,0,0,0,.926,5.774,9.068,9.068,0,0,0,3.125,4.623,10.888,10.888,0,0,0,5.348,1.843c1.944.23,3.974.242,6,.513a27.337,27.337,0,0,1,11.58,3.793,9.288,9.288,0,0,1,4.113,10.993,43.218,43.218,0,0,1-2.561,5.516,17.561,17.561,0,0,0-1.494,5.644,26.308,26.308,0,0,0,2.032,11.582,108.146,108.146,0,0,1,3.978,11.394,24.3,24.3,0,0,1,.724,6.024,18.96,18.96,0,0,1-1.055,5.96,20.4,20.4,0,0,1-7.022,9.618,19.837,19.837,0,0,0,6.808-21.465A109.9,109.9,0,0,0,1011.075,911a27.09,27.09,0,0,1-2.233-11.911,18.479,18.479,0,0,1,1.5-5.963,44.674,44.674,0,0,0,2.485-5.4,8.277,8.277,0,0,0-3.742-9.846c-3.256-2.133-7.232-3.071-11.131-3.572-1.957-.255-3.954-.256-6-.487a11.95,11.95,0,0,1-5.9-2.038,10.2,10.2,0,0,1-3.506-5.194,22.649,22.649,0,0,1-.956-6.082c-.117-4.062.19-8.072.245-12.066a40.648,40.648,0,0,0-1.233-11.79,33.292,33.292,0,0,0-5.249-10.568,36.274,36.274,0,0,0-19.427-13.067,42.531,42.531,0,0,0-11.837-1.6A24.685,24.685,0,0,0,932.54,814.262Z" transform="translate(-932.54 -811.111)" fill="#73b8d4"/></g><path d="M885.184,961.919c.373,9.079-1.731,15.9-10.034,20.388-6.613,3.577-14.531,4.75-21.829,4.929-12.239.3-25.877-2.855-35.033-11.452-1.662-1.56-3.256-3.473-3.376-5.749-.109-2.069,1.029-4.018,1.129-6.088.169-3.49-2.544-6.382-3.757-9.659-1.6-4.328-.513-9.16.926-13.545s3.241-8.812,3.025-13.422c-.28-5.98-3.874-11.2-6.751-16.451s-5.141-11.637-2.683-17.1a12.22,12.22,0,0,1,9.432-6.8c4.171-.463,7.918,4.3,10.59,6.929a65.445,65.445,0,0,0,11.91,9.263c5.96,3.617,12.5,6.284,18.108,10.428,3.392,2.508,7.031,5.95,8.65,9.945,1.825,4.5-1.371,8.859,2.493,13,2.493,2.671,6.321,3.58,9.335,5.645C883.771,946.6,884.889,954.751,885.184,961.919Z" transform="translate(-535.617 -257.76)" fill="#061f33"/><path d="M669.676,1275.42c8.594-13.243,13.941-29.5,6.474-44.448-.757-1.516-1.667-3.169-3.275-3.7-3.457-1.149-8.146.087-11.152,1.85-10.427,6.118-16.808,17.63-22.666,27.873-6.086,10.642-11.371,21.719-17.487,32.344-2.477,4.3-4.979,8.664-6.307,13.449a21.275,21.275,0,0,0,.3,13.09c6.865,17.728,25.743-3.988,31.489-10.548A262.276,262.276,0,0,0,669.676,1275.42Z" transform="translate(-387.701 -520.46)" fill="#1f8976"/><g transform="translate(258.269 694.7)"><path d="M854.961,1218.97c2.47-10.014,3.751-20.259-1.847-27.08-2.528-3.08-7.032-5.226-10.718-6.751-7.189-2.975-14.539-6.974-22.236-8.271-8.114-1.367-17.138-2.209-25.225-.254a61.307,61.307,0,0,0-14.535,6.019c-3.985,2.151-8.875,4-10.81,8.007a265.533,265.533,0,0,0-12.3,29.986c-2.888,8.5-6.057,17.418-1.507,26.036,1.474,2.793,3.616,5.183,5.3,7.851a18.517,18.517,0,0,1,2.826,9.193c.562,7.822.343,15.668.32,23.5-.007,2.258.024,4.6,1.057,6.634,2.036,4,7.567,4.058,11.552,4.051l39.4-.065a70.331,70.331,0,0,1,14.77,1.641c4.317.849,8.024-1.237,10.1-5.083,1.961-3.641,2.11-7.893,2.32-11.984a248.511,248.511,0,0,1,7.036-47.266C851.555,1230.748,853.472,1225.007,854.961,1218.97Z" transform="translate(-753.496 -1175.463)" fill="#04a687"/><g transform="translate(0)" clip-path="url(#a)"><path d="M936.711,1175.835c3.092-5.2,3.794-11.7-.256-16.71-1.852-2.291-5.127-2.548-7.928-2.6a66.665,66.665,0,0,0-16.406,1.739c-5.117,1.2-10.334,3.224-12.551,8.391a12.923,12.923,0,0,0,1.1,11.791,14.525,14.525,0,0,0,8.886,6.418,30.757,30.757,0,0,0,18.4-1.145A19.23,19.23,0,0,0,936.711,1175.835Z" transform="translate(-865.665 -1160.816)" fill="#1f8976"/><path d="M878.92,1434.636q-.061-11.058-.122-22.115c-.014-2.566,1.8-18.187-2.545-18.01a2.574,2.574,0,0,0-1.279.492c-2.161,1.42-3.271,3.8-4.281,6.058-3.166,7.081-5.824,18.417-12.413,23.374-6.7,5.039-17,7.163-25.322,8.373-9.721,1.413-19.6,1.517-29.424,2.067-6.354.355-13.364,1.2-17.538,5.613-2.981,3.155-4.5,7.883-6.09,11.738-1.391,3.368-2.5,7.369.324,10.42a13.257,13.257,0,0,0,4.558,2.884c6.13,2.657,12.831,4,19.515,5.024a290.026,290.026,0,0,0,56.72,2.646c4.051-.177,8.443-.548,11.431-3.069,2.223-1.875,3.271-4.635,4.016-7.322C879.008,1453.653,878.972,1444.084,878.92,1434.636Z" transform="translate(-772.802 -1344.769)" fill="#1f8976"/></g></g><path d="M816.129,974.067c-7.167,7.374-.666,25.391,10.763,22.783,12.281-2.8,10.433-21.94-.672-25.082C821.89,970.543,818.436,971.694,816.129,974.067Z" transform="translate(-541.319 -322.941)" fill="#9b87ff"/><path d="M848.707,896.3c7.183.916,14.75.286,21.165-3.072,8.168-4.275,12.255-12.112,12.424-21.129.123-6.532-1.142-13.341-5.085-18.55-4.288-5.664-11.473-9.146-14.139-15.73-1.727-4.264-1.313-10.069,2.1-13.368,2.174-2.1,3.874-4.468,3.595-7.617-.411-4.631-3.8-9.082-7.584-11.584-5.55-3.668-12.454-5.01-18.948-5.835-4.4-.559-8.781-1.795-10.142-6.532-.734-2.556-.589-5.252-.726-7.878-.292-5.6-.7-11.2-1.539-16.751-.965-6.4-5.119-12.584-9.751-16.991q-1-.949-2.069-1.817c-11.944-9.676-34.052-13.1-47.226-4.136a20.409,20.409,0,0,0-8.639,13.086c-.669,3.574-1.638,4.344-5.13,5.428-6.345,1.969-13.546,3.367-18.585,8.021a17.411,17.411,0,0,0-5.229,14.442c.67,6.752,5.39,9.983,8.771,15.334,3.451,5.463.738,12.337-3.27,16.845-3.087,3.472-7.467,6.008-9.211,10.314-1.6,3.961-.542,8.541,1.4,12.351.785,1.543,1.709,3.017,2.4,4.6A17.842,17.842,0,0,1,732.713,861" transform="translate(-476.068 -144.266)" fill="none" stroke="#0b2d4e" stroke-miterlimit="10" stroke-width="4"/><path d="M1149.939,1281.306q3.3,5.945,6.524,11.927c4.351,8.107,12.43,26.12-.5,30.57-6.516,2.242-10.244.05-14.551-4.7a274.444,274.444,0,0,1-41.2-59.692c-4.1-8.04-14.98-28.991-1.763-33.778a16.054,16.054,0,0,1,12.893.943,25.961,25.961,0,0,1,4.887,3.607c9.539,8.507,16.331,19.483,22.374,30.615C1142.333,1267.679,1146.156,1274.483,1149.939,1281.306Z" transform="translate(-756.938 -518.825)" fill="#04a687"/><path d="M937.675,1112.192c3.935-1.262,7.177-3.709,8.392-7.6,1.1-3.529-.636-7.5-.945-11.061a67.5,67.5,0,0,1-.111-10.264,44.434,44.434,0,0,0,.023-9.6c-.276-1.8-1.264-1.492-3.085-2.207a15.876,15.876,0,0,0-5.842-.717c-4.051.01-14.612-.284-17.116,3.271-1.149,1.632-1.24,3.686-1.295,5.629-.066,2.346-.481,5.384-.866,8.657-.171,1.457-.066,2.909-.289,4.356a27.392,27.392,0,0,1-1.4,4.726c-2.038,5.87-.13,11.452,6.218,14.14A25.081,25.081,0,0,0,937.675,1112.192Z" transform="translate(-619.559 -399.822)" fill="#f8a17a"/><path d="M948.939,1073.668c-.276-1.8-1.264-1.492-3.085-2.207a15.878,15.878,0,0,0-5.842-.717c-4.051.01-14.612-.284-17.116,3.271-1.149,1.632-1.24,3.686-1.295,5.629-.066,2.346-.481,5.384-.866,8.657-.171,1.457-.065,2.909-.289,4.356a20.16,20.16,0,0,1-1.011,3.614,21.472,21.472,0,0,0,12.46.775c7.381-1.817,12.97-6.41,16.956-12.383.021-.465.034-.929.065-1.393A44.434,44.434,0,0,0,948.939,1073.668Z" transform="translate(-623.485 -399.822)" fill="#e5785c"/><path d="M891.852,872.483a49.53,49.53,0,0,0-2.171-14.8c-6.006-18.386-28.941-22.928-42.752-9.73-15.4,14.718-9.508,49.907,6.715,62.268a18.2,18.2,0,0,0,15.5,3.054C885.083,909,891.953,889.382,891.852,872.483Z" transform="translate(-560.516 -221.765)" fill="#f8a17a"/><path d="M1044.266,980.779c7.056-3.858,9.228,5.912,8.014,10.773a15.512,15.512,0,0,1-2.541,5.619c-1.678,2.225-6.48,5.916-9.246,3.482-1.255-1.1-1.385-2.981-1.423-4.653C1038.967,991.519,1039.483,983.395,1044.266,980.779Z" transform="translate(-715.944 -329.608)" fill="#f8a17a"/><g transform="translate(300.123 670.388)"><path d="M943.025,1081.368a35.759,35.759,0,0,1-5.215-.385l.312-2.116a32.148,32.148,0,0,0,18.264-2.551,23.547,23.547,0,0,0,3.952-2.271,18.663,18.663,0,0,0,5.119-5.643l1.846,1.081a20.821,20.821,0,0,1-5.71,6.3,25.689,25.689,0,0,1-4.308,2.479A33.855,33.855,0,0,1,943.025,1081.368Z" transform="translate(-937.81 -1068.402)" fill="#8070f2"/></g><g transform="translate(292.728 677.607)"><path d="M906.451,1101.75c2.58-2.214,8.318-2.024,10.21.274a3.766,3.766,0,0,1-.57,5.307c-1.826,1.7-4.085,1.605-6.363,1.092C906.877,1107.78,903.342,1104.419,906.451,1101.75Z" transform="translate(-905.241 -1100.191)" fill="#8070f2"/></g><path d="M898.14,857.9c-6.323-19.357-30.47-24.139-45.011-10.244a28.641,28.641,0,0,0-7.074,11.4,13.465,13.465,0,0,0,1.122,1.508,21.614,21.614,0,0,0,7.52,5.1c8.095,3.742,16.819,5.938,25.584,7.58.646.121,1.3.24,1.944.368a21.681,21.681,0,0,1,6.915,2.312c5.957,3.511,3.4,11.234,7.759,14.619a4.166,4.166,0,0,0,1.193.645,65.132,65.132,0,0,0,2.333-17.7A52.14,52.14,0,0,0,898.14,857.9Z" transform="translate(-566.768 -221.231)" fill="#e5785c"/><path d="M891.435,849.966a21.679,21.679,0,0,1,6.458,3.386c5.321,4.417,1.56,11.632,5.328,15.669,3.339,3.577,8.41-1.15,9.737-4.453,2.447-6.086,2.3-12.86,2.123-19.417a40.747,40.747,0,0,0-1.282-10.863,26.716,26.716,0,0,0-6.16-10.147,39.512,39.512,0,0,0-31.093-12.122c-8.948.563-24.646,8.083-17.63,19.475a21.613,21.613,0,0,0,6.61,6.235c7.394,4.985,15.657,8.544,24.048,11.564C890.193,849.515,890.815,849.736,891.435,849.966Z" transform="translate(-575.353 -199.791)" fill="#0b2d4e"/><path d="M1042.918,970.53c-9.96,2.554-13.809,21.317-2.7,25.053,11.94,4.014,20.344-13.28,12.507-21.752C1049.671,970.527,1046.124,969.708,1042.918,970.53Z" transform="translate(-711.632 -322.138)" fill="#9b87ff"/><path d="M1063.273,981.909c-6.876,1.1-11.111,15.712-4.025,19.732,7.614,4.32,14.76-8.688,10.281-16.18C1067.781,982.539,1065.486,981.553,1063.273,981.909Z" transform="translate(-728.722 -331.108)" fill="#8070f2"/><g transform="translate(285.056 602.449)"><path d="M922.341,816.474l-2.656-.307c1.8-15.573,1.034-35.47-12.856-41.825-6.578-3.01-25.416-6.349-33.706,4.839-1,1.12-1.665,2.059-1.665,2.059,5.141-15.865,29.383-12.578,36.483-9.33C923.292,778.933,924.245,800.02,922.341,816.474Z" transform="translate(-871.458 -769.217)" fill="#9b87ff"/></g><g transform="translate(123.403 724.389)"><rect width="54.617" height="10.693" transform="translate(108.067 72.328)" fill="#b8d1ce"/><path d="M279.489,1379.571,265.705,1309.4a3.952,3.952,0,0,0-3.878-3.191H170.193a3.918,3.918,0,0,0-3.176,1.629l-.012-.012-4.231,5,3.754-.823,13.571,69.091a3.952,3.952,0,0,0,3.878,3.191h91.634A3.952,3.952,0,0,0,279.489,1379.571Z" transform="translate(-162.05 -1306.206)" fill="#b8d1ce"/><path d="M177.324,1406.046h91.633a3.952,3.952,0,0,0,3.878-4.714l-13.784-70.175a3.952,3.952,0,0,0-3.878-3.191H163.539a3.952,3.952,0,0,0-3.878,4.714l13.784,70.175A3.952,3.952,0,0,0,177.324,1406.046Z" transform="translate(-159.586 -1323.026)" fill="#fff"/><path d="M364.154,1463.058a10.7,10.7,0,0,0,10.1,8.571c4.734,0,7.831-3.837,6.918-8.571a10.82,10.82,0,0,0-10.1-8.571C366.406,1454.487,363.308,1458.324,364.154,1463.058Z" transform="translate(-317.593 -1420.815)" fill="#b8d1ce"/><path d="M159.586,1342.344" transform="translate(-159.586 -1334.138)" fill="#3f91ac"/></g><g transform="translate(420.31 715.206)"><g transform="translate(6.339)"><path d="M1501.328,1316.075a8.3,8.3,0,0,0,.192-6.273,24.289,24.289,0,0,0-2.888-5.7,25.9,25.9,0,0,1-3.163-6.427,13.821,13.821,0,0,1,.155-7.7c1.505-4.85,4.588-8.424,6.711-12.079a17.35,17.35,0,0,0,2.279-5.808,9.994,9.994,0,0,0-.757-6.321,9.129,9.129,0,0,1,2.719,6.431,16.365,16.365,0,0,1-1.438,7.074c-1.843,4.4-4.606,7.979-5.681,11.844a10.384,10.384,0,0,0-.327,5.623,30.721,30.721,0,0,0,2.251,5.9,20.494,20.494,0,0,1,2.06,6.8C1503.646,1311.825,1503.1,1314.516,1501.328,1316.075Z" transform="translate(-1494.992 -1265.768)" fill="#fff"/></g><g transform="translate(0 52.973)"><path d="M0,0H27.232a0,0,0,0,1,0,0V25.39A13.616,13.616,0,0,1,13.616,39.006h0A13.616,13.616,0,0,1,0,25.39V0A0,0,0,0,1,0,0Z" fill="#9b87ff"/><path d="M1555.127,1537.9a12,12,0,1,0,11.824,12A11.911,11.911,0,0,0,1555.127,1537.9Zm0,19.716a7.72,7.72,0,1,1,7.607-7.719A7.664,7.664,0,0,1,1555.127,1557.613Z" transform="translate(-1525.994 -1529.075)" fill="#9b87ff"/><path d="M1480,1530.985h0a1.476,1.476,0,0,1-1.472-1.472V1510.53a1.476,1.476,0,0,1,1.472-1.472h0a1.477,1.477,0,0,1,1.472,1.472v18.983A1.477,1.477,0,0,1,1480,1530.985Z" transform="translate(-1475.926 -1506.785)" fill="#fff" opacity="0.2"/><path d="M1535.829,1499.047v32.109a6.9,6.9,0,0,1-6.9,6.9h6.289a6.9,6.9,0,0,0,6.9-6.9v-32.109Z" transform="translate(-1514.886 -1499.047)" fill="#8070f2"/></g></g><g transform="translate(365.007 564.738)"><rect width="111.568" height="67.747" rx="33.874" transform="translate(111.568 67.747) rotate(180)" fill="#ffc73c"/><path d="M1288.209,874.053V842.92l24.383,13.3Z" transform="translate(-1273.524 -788.473)" fill="#ffc73c"/><rect width="55.23" height="5.911" rx="2.955" transform="translate(16.994 31.014)" fill="#fff"/><rect width="18.102" height="5.911" rx="2.955" transform="translate(76.472 31.014)" fill="#fff"/><rect width="55.23" height="5.911" rx="2.955" transform="translate(94.574 23.502) rotate(180)" fill="#fff"/><rect width="18.102" height="5.911" rx="2.955" transform="translate(35.096 23.502) rotate(180)" fill="#fff"/><rect width="38.79" height="5.911" rx="2.955" transform="translate(16.994 43.285)" fill="#fff"/></g><g transform="translate(440.047 642.5)"><g transform="translate(0 0)"><path d="M1585.94,954.769c-2.5-.015-4.924-.336-6.636-2.787-3.36-4.811-8.488-9.13-14.239-4.238-3.317,2.822-.823,8.627-3.677,11.419-2.524,2.469-5.734,2.061-7.026,6.159-1.9,6.029,4.087,11.312,6.008,16.526,1.613,4.375-2.014,6.042-3.643,9.452-1.256,2.628-.61,5.444.758,7.956,2.414,4.431,7.766,8,6.526,13.735-1.035,4.788-2,9.056,2.228,12.685,2.9,2.488,8.27,4.755,7.86,9.359-.145,1.629-1.272,3.018-1.582,4.625-.49,2.542,1.157,5.016,3.07,6.761,4.351,3.97,8.173,7.714,11.432,12.709,1.393,2.134,6.969,6.954,4.74,9.872,4.05-5.3,8.332-10.448,12.012-16.024,3.027-4.586,7.59-11.294,4.484-16.943-.966-1.757-2.763-3.066-3.255-5.01-.889-3.51,2.56-6.764,3.842-9.75a12.536,12.536,0,0,0-3.01-13.653c-1.678-1.665-3.5-3.5-3.744-5.847-.269-2.567,1.34-4.96,2.07-7.328a36.523,36.523,0,0,0,1.338-6.771,14.084,14.084,0,0,0-.136-4.805c-.716-2.978-3.4-4.633-5.383-6.746-4.725-5.03-2.242-10.945-4.306-16.791C1593.82,954.085,1589.792,954.792,1585.94,954.769Z" transform="translate(-1553.995 -945.59)" fill="#3dc8e8"/><g clip-path="url(#b)"><g transform="translate(-4.349 -3.912)"><path d="M1631.5,1061.667c1.755-20.111.143-40.382-3.572-60.189-3.544-18.894-8.2-37.854-15.248-55.765a171.577,171.577,0,0,0-7.92-17.35" transform="translate(-1588.884 -928.363)" fill="none" stroke="#26a8d1" stroke-miterlimit="10" stroke-width="5"/><path d="M1534.842,1047.123a121.362,121.362,0,0,1,28.01,14.2c2.2,1.5,3.424,1.962,5.258,3.893" transform="translate(-1534.842 -1020.155)" fill="none" stroke="#26a8d1" stroke-miterlimit="10" stroke-width="5"/><path d="M1595.007,1180.384a82.916,82.916,0,0,0-31.438-12.135" transform="translate(-1557.046 -1113.775)" fill="none" stroke="#26a8d1" stroke-miterlimit="10" stroke-width="5"/><path d="M1612.883,1282.893a70.88,70.88,0,0,0-31.048-15.584" transform="translate(-1571.164 -1190.341)" fill="none" stroke="#26a8d1" stroke-miterlimit="10" stroke-width="5"/><path d="M1679.178,1018.887a88.139,88.139,0,0,1,7.772-30.848" transform="translate(-1646.402 -974.488)" fill="none" stroke="#26a8d1" stroke-miterlimit="10" stroke-width="5"/><path d="M1701.481,1131.694a77.819,77.819,0,0,1,18.937-25.305" transform="translate(-1663.64 -1065.963)" fill="none" stroke="#26a8d1" stroke-miterlimit="10" stroke-width="5"/><path d="M1721.154,1262.419a29.161,29.161,0,0,1,3.214-8.476,52.237,52.237,0,0,1,6.372-8.432q2.519-2.862,5.123-5.647" transform="translate(-1678.846 -1169.129)" fill="none" stroke="#26a8d1" stroke-miterlimit="10" stroke-width="5"/></g></g></g><g transform="translate(33.731 41.268)"><path d="M1731.437,1131.889c1.814.335,3.618.438,5.2-1.1,3.1-3.025,7.421-5.448,10.915-1.1,2.015,2.506-.6,6.371,1.087,8.792,1.489,2.141,3.874,2.289,4.244,5.44.543,4.636-4.53,7.64-6.646,11.155-1.775,2.951.625,4.662,1.335,7.36a6.355,6.355,0,0,1-1.652,5.666c-2.364,2.88-6.74,4.727-6.635,9.06.088,3.616.2,6.845-3.372,8.893-2.445,1.4-6.657,2.3-7,5.7-.12,1.2.506,2.365.507,3.574,0,1.912-1.534,3.478-3.163,4.479a48.256,48.256,0,0,0-10.052,7.636c-1.306,1.355-6.017,4.08-4.8,6.5-2.2-4.408-4.6-8.732-6.5-13.286-1.561-3.746-3.943-9.243-.908-12.91.944-1.141,2.429-1.842,3.055-3.184,1.131-2.423-.92-5.261-1.437-7.6a9.257,9.257,0,0,1,4.073-9.487c1.447-.976,3.021-2.052,3.525-3.723.55-1.825-.286-3.784-.488-5.6a26.96,26.96,0,0,1-.034-5.1,10.392,10.392,0,0,1,.764-3.467c.931-2.061,3.106-2.891,4.838-4.149,4.124-2.995,3.141-7.629,5.448-11.584C1725.816,1130.3,1728.639,1131.372,1731.437,1131.889Z" transform="translate(-1702.537 -1127.321)" fill="#26a8d1"/><g clip-path="url(#c)"><g transform="translate(5.89 -2.102)"><path d="M1736.332,1211.057a164.1,164.1,0,0,1,10.922-43.165c5.186-13.215,11.184-26.324,18.779-38.34a126.69,126.69,0,0,1,8.146-11.489" transform="translate(-1734.547 -1118.063)" fill="none" stroke="#3dc8e8" stroke-miterlimit="10" stroke-width="5"/><path d="M1846.621,1213.886a89.625,89.625,0,0,0-22.283,6.424,18.781,18.781,0,0,0-4.353,2.1" transform="translate(-1799.205 -1192.126)" fill="none" stroke="#3dc8e8" stroke-miterlimit="10" stroke-width="5"/><path d="M1791.857,1302.155a61.234,61.234,0,0,1,24.484-4.451" transform="translate(-1777.464 -1256.896)" fill="none" stroke="#3dc8e8" stroke-miterlimit="10" stroke-width="5"/><path d="M1764.04,1374.1a52.345,52.345,0,0,1,24.678-7.007" transform="translate(-1755.964 -1310.547)" fill="none" stroke="#3dc8e8" stroke-miterlimit="10" stroke-width="5"/><path d="M1817.3,1169.765a65.09,65.09,0,0,0-1.368-23.453" transform="translate(-1796.074 -1139.897)" fill="none" stroke="#3dc8e8" stroke-miterlimit="10" stroke-width="5"/><path d="M1757.944,1243.245a57.462,57.462,0,0,0-10.234-20.977" transform="translate(-1743.342 -1198.605)" fill="none" stroke="#3dc8e8" stroke-miterlimit="10" stroke-width="5"/><path d="M1736.021,1337.338a21.529,21.529,0,0,0-1.158-6.593,38.575,38.575,0,0,0-3.455-7q-1.431-2.424-2.934-4.8" transform="translate(-1728.473 -1273.326)" fill="none" stroke="#3dc8e8" stroke-miterlimit="10" stroke-width="5"/></g></g></g><path d="M1658.64,1504.96h37.079l-6.5,37.106h-24.068Z" transform="translate(-1634.877 -1377.938)" fill="#efb126"/><rect width="46.157" height="10.415" transform="translate(65.381 127.022) rotate(180)" fill="#ffc73c"/><path d="M1694.856,1509.881H1659.5l-.863-4.921h37.079Z" transform="translate(-1634.877 -1377.938)" fill="#231f20" opacity="0.1"/></g><path d="M1009.671,1566.586q1.669-.285,3.343-.549,8.14-1.277,16.206-3.031a272.6,272.6,0,0,1,32.184-5.328q1.722-.164,3.448-.294c4.858-.367,9.947-.486,14.394,1.836s7.983,7.817,6.9,13.115a11.532,11.532,0,0,1-6.771,7.935c-3.162,1.412-6.643,1.658-10.058,1.888l-33.187,2.234q-8.216.548-16.43,1.124c-5.23.363-10.539,1.1-15.783,1.1a10.519,10.519,0,0,1-6.559-1.9c-2.591-2.057-4.151-6.438-4.4-9.861-.13-1.778.217-3.936,1.578-5.036a5.481,5.481,0,0,1,2.548-.933C1001.281,1568.111,1005.465,1567.3,1009.671,1566.586Z" transform="translate(-680.287 -775.8)" fill="#04a687"/><path d="M854.272,1623.061c-2.675.552-4.765,2.9-7.428,3.688a9.14,9.14,0,0,1-5.759-.423c-1.679-.63-3.386-.966-5.109-1.518-1.343-.43-3.156-1.336-4.6-1.035-3.782.787-7.553,3.478-10.98,5.225a3.987,3.987,0,0,1-2.465.636c-.85-.161-1.558-1.191-1.075-1.909-.986.921-2.292,2.764-3.883,2.049a1.33,1.33,0,0,1-.683-1.769,5.373,5.373,0,0,1-1.876,1.517,1.84,1.84,0,0,1-2.19-.51,2.175,2.175,0,0,1-.291-1.094,8.264,8.264,0,0,1,.878-3.8c2.7-5.892,8.8-10.262,14-13.773a11.2,11.2,0,0,1,2.916-1.574,10.223,10.223,0,0,1,2.948-.327,58.785,58.785,0,0,1,18.992,3.069,8.222,8.222,0,0,0,4.092-.18,6.377,6.377,0,0,1,2.946-.085,5.079,5.079,0,0,1,2.541,2.056,9.54,9.54,0,0,1,1.964,5.929c-.108,1.58-.228,3.284-2.087,3.616-.753.134-1.529.051-2.29.131C854.644,1622.993,854.457,1623.023,854.272,1623.061Z" transform="translate(-537.298 -815.419)" fill="#f8a17a"/><path d="M512.9,1681.9H120.02a7.083,7.083,0,0,1-7.247-6.908h0a7.083,7.083,0,0,1,7.247-6.908H512.9a7.083,7.083,0,0,1,7.247,6.908h0A7.083,7.083,0,0,1,512.9,1681.9Z" transform="translate(0 -861.522)" fill="#9dddd0"/><g transform="translate(180.28 573.908)"><path d="M436.075,643.532H421.4a11.378,11.378,0,0,0-11.345,11.345h0a11.353,11.353,0,0,0,4.918,9.333v7.985l8.166-5.973h12.937a11.378,11.378,0,0,0,11.345-11.345h0A11.379,11.379,0,0,0,436.075,643.532Z" transform="translate(-410.054 -643.532)" fill="#9dddd0"/><circle cx="1.722" cy="1.722" r="1.722" transform="translate(8.741 9.624)" fill="#fff"/><circle cx="1.722" cy="1.722" r="1.722" transform="translate(16.962 9.624)" fill="#fff"/><circle cx="1.722" cy="1.722" r="1.722" transform="translate(25.182 9.624)" fill="#fff"/></g><path d="M1406.257,1069.023c-2.263-3.872-7.975-5.817-13.5.636-5.521-6.453-11.233-4.509-13.5-.636-5.576,9.541,13.5,20.769,13.5,20.769S1411.833,1078.564,1406.257,1069.023Z" transform="translate(-978.106 -395.735)" fill="#9dddd0"/><g transform="translate(268.226 553.453)"><rect width="33.827" height="22.57" rx="11.285" transform="translate(0 0)" fill="#9dddd0"/><path d="M799.748,556.644,814.558,571a2.274,2.274,0,0,0,3.114,0l14.81-14.361" transform="translate(-799.202 -555.919)" fill="none" stroke="#fff" stroke-miterlimit="10" stroke-width="4"/><line y1="9.334" x2="12.152" transform="translate(0.546 12.508)" fill="none" stroke="#fff" stroke-miterlimit="10" stroke-width="4"/><line x1="12.152" y1="9.334" transform="translate(21.129 12.508)" fill="none" stroke="#fff" stroke-miterlimit="10" stroke-width="4"/></g><g transform="translate(205.445 636.955)"><g transform="translate(0 0)"><rect width="39.075" height="27.141" rx="12" fill="#9dddd0"/></g><g transform="translate(12.686 26.476)"><path d="M583.594,1047.008l6.851-9.24h-13.7Z" transform="translate(-576.742 -1037.768)" fill="#9dddd0"/></g><g transform="translate(25.852 9.062)"><path d="M638.685,969.08h-1.691v-4.628l.017-.76.027-.831q-.421.421-.585.552l-.919.738-.815-1.018,2.577-2.051h1.39Z" transform="translate(-634.719 -961.082)" fill="#fff"/></g><g transform="translate(7.454 8.793)"><path d="M563.534,959.9h-5.546a4.3,4.3,0,0,0-4.287,4.287h0a4.29,4.29,0,0,0,1.858,3.526v3.017l3.086-2.257h4.888a4.3,4.3,0,0,0,4.287-4.287h0A4.3,4.3,0,0,0,563.534,959.9Z" transform="translate(-553.702 -959.897)" fill="#fff"/></g></g></g></svg>