<?xml version="1.0" standalone="no"?>
<svg xmlns:xlink="http://www.w3.org/1999/xlink" id="wave" style="transform:rotate(0deg); transition: 0.3s" viewBox="0 0 1440 460" version="1.1" xmlns="http://www.w3.org/2000/svg"><defs><linearGradient id="sw-gradient-0" x1="0" x2="0" y1="1" y2="0"><stop stop-color="rgba(149.726, 187.477, 206.352, 1)" offset="0%"/><stop stop-color="rgba(18, 49, 66, 1)" offset="100%"/></linearGradient></defs><path style="transform:translate(0, 0px); opacity:1" fill="url(#sw-gradient-0)" d="M0,138L80,122.7C160,107,320,77,480,107.3C640,138,800,230,960,245.3C1120,261,1280,199,1440,184C1600,169,1760,199,1920,230C2080,261,2240,291,2400,276C2560,261,2720,199,2880,207C3040,215,3200,291,3360,322C3520,353,3680,337,3840,306.7C4000,276,4160,230,4320,237.7C4480,245,4640,307,4800,283.7C4960,261,5120,153,5280,92C5440,31,5600,15,5760,7.7C5920,0,6080,0,6240,38.3C6400,77,6560,153,6720,222.3C6880,291,7040,353,7200,375.7C7360,399,7520,383,7680,375.7C7840,368,8000,368,8160,360.3C8320,353,8480,337,8640,314.3C8800,291,8960,261,9120,230C9280,199,9440,169,9600,199.3C9760,230,9920,322,10080,345C10240,368,10400,322,10560,306.7C10720,291,10880,307,11040,291.3C11200,276,11360,230,11440,207L11520,184L11520,460L11440,460C11360,460,11200,460,11040,460C10880,460,10720,460,10560,460C10400,460,10240,460,10080,460C9920,460,9760,460,9600,460C9440,460,9280,460,9120,460C8960,460,8800,460,8640,460C8480,460,8320,460,8160,460C8000,460,7840,460,7680,460C7520,460,7360,460,7200,460C7040,460,6880,460,6720,460C6560,460,6400,460,6240,460C6080,460,5920,460,5760,460C5600,460,5440,460,5280,460C5120,460,4960,460,4800,460C4640,460,4480,460,4320,460C4160,460,4000,460,3840,460C3680,460,3520,460,3360,460C3200,460,3040,460,2880,460C2720,460,2560,460,2400,460C2240,460,2080,460,1920,460C1760,460,1600,460,1440,460C1280,460,1120,460,960,460C800,460,640,460,480,460C320,460,160,460,80,460L0,460Z"/></svg>