<?xml version="1.0" standalone="no"?>
<svg xmlns:xlink="http://www.w3.org/1999/xlink" id="wave" style="transform:rotate(0deg); transition: 0.3s" viewBox="0 0 1440 490" version="1.1" xmlns="http://www.w3.org/2000/svg"><defs><linearGradient id="sw-gradient-0" x1="0" x2="0" y1="1" y2="0"><stop stop-color="rgba(255, 255, 255, 1)" offset="0%"/><stop stop-color="rgba(0, 169, 157, 1)" offset="100%"/></linearGradient></defs><path style="transform:translate(0, 0px); opacity:1" fill="url(#sw-gradient-0)" d="M0,245L120,269.5C240,294,480,343,720,326.7C960,310,1200,229,1440,228.7C1680,229,1920,310,2160,334.8C2400,359,2640,327,2880,285.8C3120,245,3360,196,3600,163.3C3840,131,4080,114,4320,114.3C4560,114,4800,131,5040,122.5C5280,114,5520,82,5760,73.5C6000,65,6240,82,6480,81.7C6720,82,6960,65,7200,49C7440,33,7680,16,7920,57.2C8160,98,8400,196,8640,253.2C8880,310,9120,327,9360,351.2C9600,376,9840,408,10080,424.7C10320,441,10560,441,10800,367.5C11040,294,11280,147,11520,147C11760,147,12000,294,12240,318.5C12480,343,12720,245,12960,245C13200,245,13440,343,13680,392C13920,441,14160,441,14400,441C14640,441,14880,441,15120,383.8C15360,327,15600,212,15840,187.8C16080,163,16320,229,16560,236.8C16800,245,17040,196,17160,171.5L17280,147L17280,490L17160,490C17040,490,16800,490,16560,490C16320,490,16080,490,15840,490C15600,490,15360,490,15120,490C14880,490,14640,490,14400,490C14160,490,13920,490,13680,490C13440,490,13200,490,12960,490C12720,490,12480,490,12240,490C12000,490,11760,490,11520,490C11280,490,11040,490,10800,490C10560,490,10320,490,10080,490C9840,490,9600,490,9360,490C9120,490,8880,490,8640,490C8400,490,8160,490,7920,490C7680,490,7440,490,7200,490C6960,490,6720,490,6480,490C6240,490,6000,490,5760,490C5520,490,5280,490,5040,490C4800,490,4560,490,4320,490C4080,490,3840,490,3600,490C3360,490,3120,490,2880,490C2640,490,2400,490,2160,490C1920,490,1680,490,1440,490C1200,490,960,490,720,490C480,490,240,490,120,490L0,490Z"/><defs><linearGradient id="sw-gradient-1" x1="0" x2="0" y1="1" y2="0"><stop stop-color="rgba(255, 255, 255, 1)" offset="0%"/><stop stop-color="rgba(0, 169, 157, 1)" offset="100%"/></linearGradient></defs><path style="transform:translate(0, 50px); opacity:0.9" fill="url(#sw-gradient-1)" d="M0,441L120,416.5C240,392,480,343,720,277.7C960,212,1200,131,1440,138.8C1680,147,1920,245,2160,236.8C2400,229,2640,114,2880,89.8C3120,65,3360,131,3600,130.7C3840,131,4080,65,4320,57.2C4560,49,4800,98,5040,147C5280,196,5520,245,5760,236.8C6000,229,6240,163,6480,114.3C6720,65,6960,33,7200,32.7C7440,33,7680,65,7920,81.7C8160,98,8400,98,8640,155.2C8880,212,9120,327,9360,359.3C9600,392,9840,343,10080,334.8C10320,327,10560,359,10800,310.3C11040,261,11280,131,11520,73.5C11760,16,12000,33,12240,65.3C12480,98,12720,147,12960,179.7C13200,212,13440,229,13680,228.7C13920,229,14160,212,14400,228.7C14640,245,14880,294,15120,269.5C15360,245,15600,147,15840,114.3C16080,82,16320,114,16560,138.8C16800,163,17040,180,17160,187.8L17280,196L17280,490L17160,490C17040,490,16800,490,16560,490C16320,490,16080,490,15840,490C15600,490,15360,490,15120,490C14880,490,14640,490,14400,490C14160,490,13920,490,13680,490C13440,490,13200,490,12960,490C12720,490,12480,490,12240,490C12000,490,11760,490,11520,490C11280,490,11040,490,10800,490C10560,490,10320,490,10080,490C9840,490,9600,490,9360,490C9120,490,8880,490,8640,490C8400,490,8160,490,7920,490C7680,490,7440,490,7200,490C6960,490,6720,490,6480,490C6240,490,6000,490,5760,490C5520,490,5280,490,5040,490C4800,490,4560,490,4320,490C4080,490,3840,490,3600,490C3360,490,3120,490,2880,490C2640,490,2400,490,2160,490C1920,490,1680,490,1440,490C1200,490,960,490,720,490C480,490,240,490,120,490L0,490Z"/></svg>