<?xml version="1.0" standalone="no"?>
<svg xmlns:xlink="http://www.w3.org/1999/xlink" id="wave" style="transform:rotate(0deg); transition: 0.3s" viewBox="0 0 1440 490" version="1.1" xmlns="http://www.w3.org/2000/svg"><defs><linearGradient id="sw-gradient-0" x1="0" x2="0" y1="1" y2="0"><stop stop-color="rgba(255, 255, 255, 1)" offset="0%"/><stop stop-color="rgba(0, 169, 157, 1)" offset="100%"/></linearGradient></defs><path style="transform:translate(0, 0px); opacity:1" fill="url(#sw-gradient-0)" d="M0,196L80,187.8C160,180,320,163,480,196C640,229,800,310,960,294C1120,278,1280,163,1440,155.2C1600,147,1760,245,1920,253.2C2080,261,2240,180,2400,187.8C2560,196,2720,294,2880,285.8C3040,278,3200,163,3360,130.7C3520,98,3680,147,3840,212.3C4000,278,4160,359,4320,383.8C4480,408,4640,376,4800,367.5C4960,359,5120,376,5280,383.8C5440,392,5600,392,5760,343C5920,294,6080,196,6240,163.3C6400,131,6560,163,6720,220.5C6880,278,7040,359,7200,367.5C7360,376,7520,310,7680,285.8C7840,261,8000,278,8160,236.8C8320,196,8480,98,8640,114.3C8800,131,8960,261,9120,285.8C9280,310,9440,229,9600,228.7C9760,229,9920,310,10080,285.8C10240,261,10400,131,10560,98C10720,65,10880,131,11040,179.7C11200,229,11360,261,11440,277.7L11520,294L11520,490L11440,490C11360,490,11200,490,11040,490C10880,490,10720,490,10560,490C10400,490,10240,490,10080,490C9920,490,9760,490,9600,490C9440,490,9280,490,9120,490C8960,490,8800,490,8640,490C8480,490,8320,490,8160,490C8000,490,7840,490,7680,490C7520,490,7360,490,7200,490C7040,490,6880,490,6720,490C6560,490,6400,490,6240,490C6080,490,5920,490,5760,490C5600,490,5440,490,5280,490C5120,490,4960,490,4800,490C4640,490,4480,490,4320,490C4160,490,4000,490,3840,490C3680,490,3520,490,3360,490C3200,490,3040,490,2880,490C2720,490,2560,490,2400,490C2240,490,2080,490,1920,490C1760,490,1600,490,1440,490C1280,490,1120,490,960,490C800,490,640,490,480,490C320,490,160,490,80,490L0,490Z"/></svg>