<?xml  version="1.0" standalone="no"?> 
<svg  xmlns:xlink="http://www.w3.org/1999/xlink" id="wave" style="transform:rotate(0deg); transition: 0.3s" viewBox="0 0 1440 450" version="1.1" xmlns="http://www.w3.org/2000/svg"><defs><linearGradient id="sw-gradient-0" x1="0" x2="0" y1="1" y2="0"><stop stop-color="rgba(255, 255, 255, 1)" offset="0%"/><stop stop-color="rgba(0, 169, 157, 1)" offset="100%"/></linearGradient></defs><path style="transform:translate(0, 0px); opacity:1" fill="url(#sw-gradient-0)" d="M0,196L120,187.8C240,180,480,163,720,196C960,229,1200,310,1440,294C1680,278,1920,163,2160,155.2C2400,147,2640,245,2880,253.2C3120,261,3360,180,3600,187.8C3840,196,4080,294,4320,285.8C4560,278,4800,163,5040,130.7C5280,98,5520,147,5760,212.3C6000,278,6240,359,6480,383.8C6720,408,6960,376,7200,367.5C7440,359,7680,376,7920,383.8C8160,392,8400,392,8640,343C8880,294,9120,196,9360,163.3C9600,131,9840,163,10080,220.5C10320,278,10560,359,10800,367.5C11040,376,11280,310,11520,285.8C11760,261,12000,278,12240,236.8C12480,196,12720,98,12960,114.3C13200,131,13440,261,13680,285.8C13920,310,14160,229,14400,228.7C14640,229,14880,310,15120,285.8C15360,261,15600,131,15840,98C16080,65,16320,131,16560,179.7C16800,229,17040,261,17160,277.7L17280,294L17280,490L17160,490C17040,490,16800,490,16560,490C16320,490,16080,490,15840,490C15600,490,15360,490,15120,490C14880,490,14640,490,14400,490C14160,490,13920,490,13680,490C13440,490,13200,490,12960,490C12720,490,12480,490,12240,490C12000,490,11760,490,11520,490C11280,490,11040,490,10800,490C10560,490,10320,490,10080,490C9840,490,9600,490,9360,490C9120,490,8880,490,8640,490C8400,490,8160,490,7920,490C7680,490,7440,490,7200,490C6960,490,6720,490,6480,490C6240,490,6000,490,5760,490C5520,490,5280,490,5040,490C4800,490,4560,490,4320,490C4080,490,3840,490,3600,490C3360,490,3120,490,2880,490C2640,490,2400,490,2160,490C1920,490,1680,490,1440,490C1200,490,960,490,720,490C480,490,240,490,120,490L0,490Z"/></svg>